<svg width="1280" height="320" viewBox="0 0 1280 320" fill="none" xmlns="http://www.w3.org/2000/svg" role="img" aria-labelledby="title desc">
  <title id="title">AGENT-POWERUPS</title>
  <desc id="desc">Featured repository banner for the agent-powerups project.</desc>
  <defs>
    <linearGradient id="bg" x1="22" y1="20" x2="1258" y2="300" gradientUnits="userSpaceOnUse">
      <stop stop-color="#12192A"/>
      <stop offset="0.55" stop-color="#0A0F19"/>
      <stop offset="1" stop-color="#06090F"/>
    </linearGradient>
    <linearGradient id="edge" x1="24" y1="24" x2="1256" y2="296" gradientUnits="userSpaceOnUse">
      <stop stop-color="#FCEE0C"/>
      <stop offset="0.45" stop-color="#03D8F3"/>
      <stop offset="1" stop-color="#FF0055"/>
    </linearGradient>
    <pattern id="grid" width="42" height="42" patternUnits="userSpaceOnUse">
      <path d="M42 0H0V42" fill="none" stroke="#18304A" stroke-opacity="0.28"/>
    </pattern>
    <style>
      .tiny { fill:#8CA3BA; font:700 12px 'Courier New', monospace; letter-spacing:2px; }
      .hud { fill:#FCEE0C; font:800 16px 'Segoe UI', Tahoma, sans-serif; letter-spacing:3px; }
      .title { fill:#FFFFFF; font:900 50px 'Arial Black', 'Segoe UI', sans-serif; letter-spacing:1px; }
      .body { fill:#E1EDF7; font:600 18px 'Segoe UI', Tahoma, sans-serif; }
      .metric { fill:#FFFFFF; font:900 28px 'Arial Black', 'Segoe UI', sans-serif; }
      .chip { fill:#F5FAFF; font:700 12px 'Segoe UI', Tahoma, sans-serif; letter-spacing:1px; }
      .dash { stroke-dasharray:16 11; animation:dash 16s linear infinite; }
      @keyframes dash { to { stroke-dashoffset:-320; } }
    </style>
  </defs>

  <rect width="1280" height="320" rx="28" fill="url(#bg)"/>
  <rect width="1280" height="320" rx="28" fill="url(#grid)"/>
  <rect x="18" y="18" width="1244" height="284" rx="22" fill="none" stroke="url(#edge)" stroke-width="2.5" class="dash"/>
  <rect x="34" y="34" width="1212" height="252" rx="18" fill="none" stroke="#27364A"/>
  <path d="M824 34H1086L1246 194V286H824V34Z" fill="#0D1421" fill-opacity="0.48"/>

  <text x="48" y="72" class="hud">FEATURED ARTIFACT</text>
  <text x="48" y="126" class="title">AGENT-POWERUPS</text>
  <text x="48" y="160" class="body">Make the most of your AI agents with powerful plugins and seamless integration.</text>
  <text x="48" y="188" class="body">Cross-agent interaction. Make your agents invoke secondary assistants</text>

  <g transform="translate(50 208)">
    <rect width="180" height="32" rx="17" fill="#101827" stroke="#2D3E53"/>
    <text x="90" y="20" class="chip" text-anchor="middle">CROSS-AGENT SUPPORT</text>
    <rect x="190" width="90" height="32" rx="17" fill="#101827" stroke="#2D3E53"/>
    <text x="235" y="20" class="chip" text-anchor="middle">SKILLS</text>
    <rect x="290" width="140" height="32" rx="17" fill="#101827" stroke="#2D3E53"/>
    <text x="360" y="20" class="chip" text-anchor="middle">AGENT PLUGINS</text>
    <rect x="440" width="120" height="32" rx="17" fill="#101827" stroke="#2D3E53"/>
    <text x="500" y="20" class="chip" text-anchor="middle">DEV TOOLS</text>
  </g>

  <g transform="translate(50 270)">
    <text class="tiny">PATH // yeaight7 / agent-powerups / skills + plugins + commands </text>
  </g>

  <g transform="translate(780 60)"> <!-- RESTAMOS 66 a la x para ajustar -->
    <rect width="440" height="184" rx="22" fill="#0F1724" stroke="#26374C"/> <!-- ahora ensanchamos el resto -->
    <text x="24" y="30" class="tiny">BEST SKILLSET</text>

    <g transform="translate(24 48)">
      <rect width="120" height="102" rx="16" fill="#101827" stroke="#2D3E53"/> <!-- w+=22 -->
      <text x="60" y="25" class="tiny" text-anchor="middle">Plugins</text>
      <text x="60" y="62" class="metric" text-anchor="middle">17</text>
      <text x="62" y="85" class="tiny" text-anchor="middle">Bundles</text>
    </g>

    <g transform="translate(160 48)"> <!-- x+=22 -->
      <rect width="120" height="102" rx="16" fill="#101827" stroke="#2D3E53"/> <!-- w+=22 -->
      <text x="60" y="62" class="metric" text-anchor="middle">63</text>
      <text x="60" y="85" class="tiny" text-anchor="middle">Skills</text>
      <text x="62" y="25" class="tiny" text-anchor="middle">Compatible</text>
    </g>

    <g transform="translate(296 48)"> <!-- x+=44 -->
      <rect width="120" height="102" rx="16" fill="#101827" stroke="#2D3E53"/> <!-- w+=22 -->
      <text x="60" y="25" class="tiny" text-anchor="middle">Stars</text> <!-- x+=11 -->
      <text x="60" y="62" class="metric" text-anchor="middle">4</text>
      <text x="62" y="85" class="tiny" text-anchor="middle">⭐</text>
    </g>
  </g>

  <!-- <path d="M910 262H1164" stroke="#FF0055"/> -->
  <text x="840" y="232" class="tiny">Save and share your favorite skills!</text>
</svg>
